<svg xmlns="http://www.w3.org/2000/svg" width="32" height="32" viewBox="0 0 32 32" fill="none">
  <rect width="32" height="32" rx="6" fill="url(#a)"/>
  <path d="M8 6h6a3 3 0 0 1 3 3v14a2 2 0 0 1-2 2H8a2 2 0 0 1-2-2V8a2 2 0 0 1 2-2z" stroke="white" stroke-width="1.5" stroke-linecap="round" stroke-linejoin="round" fill="none"/>
  <path d="M24 6h-6a3 3 0 0 0-3 3v14a2 2 0 0 0 2 2h7a2 2 0 0 0 2-2V8a2 2 0 0 0-2-2z" stroke="white" stroke-width="1.5" stroke-linecap="round" stroke-linejoin="round" fill="none"/>
  <defs>
    <linearGradient id="a" x1="0" y1="0" x2="32" y2="32" gradientUnits="userSpaceOnUse">
      <stop stop-color="#b45309"/>
      <stop offset="1" stop-color="#92400e"/>
    </linearGradient>
  </defs>
</svg>
